<?xml version="1.0" encoding="UTF-8"?>
<svg id="Calque_2" data-name="Calque 2" xmlns="http://www.w3.org/2000/svg" viewBox="0 0 82.48 62.63">
  <defs>
    <style>
      .cls-1 {
        fill: #c4a663;
      }
    </style>
  </defs>
  <g id="Calque_1-2" data-name="Calque 1">
    <g>
      <g>
        <polygon class="cls-1" points="48.85 23.58 44.72 30.59 40.52 23.58 38.24 23.58 38.24 35.44 40.95 35.44 40.95 29.12 44.02 34.17 45.36 34.17 48.44 29.04 48.45 35.44 51.14 35.44 51.13 23.58 48.85 23.58"/>
        <path class="cls-1" d="M64.9,31.85c-.36.4-.77.71-1.22.9-.9.39-2.06.38-2.93.03-.43-.17-.81-.42-1.13-.73-.32-.31-.57-.69-.74-1.11-.18-.43-.27-.91-.27-1.43s.09-1,.27-1.43c.18-.43.43-.8.74-1.12.32-.31.7-.56,1.13-.73.87-.34,2.03-.36,2.93.03.45.2.86.5,1.23.89l.25.27,1.86-1.75-.23-.27c-.56-.66-1.25-1.16-2.05-1.49-1.54-.64-3.57-.66-5.13-.05-.76.3-1.44.72-2.01,1.27-.58.55-1.03,1.2-1.34,1.94-.31.74-.47,1.56-.47,2.43s.16,1.69.47,2.43c.31.74.76,1.39,1.33,1.94.57.55,1.24.97,2.01,1.27.77.3,1.6.45,2.49.45.97,0,1.86-.17,2.65-.51.8-.34,1.49-.84,2.04-1.48l.23-.27-1.86-1.78-.25.28Z"/>
        <polygon class="cls-1" points="77.13 23.58 74.62 23.58 69.28 35.44 72.23 35.44 75.86 26.95 79.5 35.44 82.48 35.44 77.13 23.58"/>
      </g>
      <g>
        <path class="cls-1" d="M28.33,11.28L22.01,0C-1.98,4.8-2.35,28.82,2.38,36.62,10.74,18.68,17.38,7.96,28.33,11.28Z"/>
        <path class="cls-1" d="M18.46,39.25c-3.49-2.16-6.32-7.99-6.32-7.99l-6.41,11.15,20.14,20.22,21.8-21.88-18.89.33s-6.82.33-10.32-1.83Z"/>
        <path class="cls-1" d="M27.83.44c4.92,6.95,8.82,12.96,11.03,18.18h11.67C46.84,6.52,34.37.27,27.83.44Z"/>
      </g>
    </g>
  </g>
</svg>