<?xml version="1.0" encoding="UTF-8"?>
<svg id="Calque_2" data-name="Calque 2" xmlns="http://www.w3.org/2000/svg" viewBox="0 0 125.21 62.63">
  <defs>
    <style>
      .cls-1 {
        fill: #fff;
      }

      .cls-2 {
        fill: #c4a663;
      }
    </style>
  </defs>
  <g id="Calque_1-2" data-name="Calque 1">
    <g>
      <g>
        <path class="cls-2" d="M12.14,31.27l-6.41,11.15,20.14,20.22,21.8-21.88-18.89.33s-6.82.33-10.32-1.83-6.32-7.99-6.32-7.99Z"/>
        <path class="cls-2" d="M36.95,35.54l12.93.12C57.61,12.45,36.95.21,27.83.44c11.43,16.16,17.43,27.25,9.12,35.1Z"/>
      </g>
      <path class="cls-2" d="M28.32,11.28L22.01,0C-1.98,4.8-2.35,28.82,2.38,36.62,10.74,18.68,17.38,7.96,28.32,11.28Z"/>
    </g>
    <g>
      <path class="cls-2" d="M76.9,50.81l2.6-5.7h.59l2.6,5.7h-.64l-2.39-5.35h.24l-2.39,5.35h-.63Z"/>
      <path class="cls-2" d="M86.88,50.85c-.42,0-.8-.09-1.13-.28-.33-.19-.6-.45-.79-.77-.19-.33-.29-.7-.29-1.13s.1-.81.29-1.13c.19-.33.45-.58.79-.77.33-.18.71-.28,1.13-.28.36,0,.69.07.98.21s.52.35.69.64l-.43.29c-.15-.22-.33-.38-.55-.48-.22-.1-.45-.15-.71-.15-.3,0-.58.07-.82.21-.24.14-.44.33-.58.58-.14.25-.21.54-.21.88s.07.63.21.88c.14.25.33.44.58.58.24.14.52.21.82.21.26,0,.49-.05.71-.15.22-.1.4-.26.55-.47l.43.29c-.17.28-.4.49-.69.63s-.62.22-.98.22Z"/>
      <path class="cls-2" d="M92.52,50.85c-.32,0-.6-.05-.83-.16-.24-.11-.42-.25-.54-.44s-.19-.4-.19-.65c0-.22.05-.42.16-.61.11-.18.28-.33.52-.44s.57-.17.97-.17h1.47v.43h-1.46c-.41,0-.7.07-.86.22-.16.15-.24.33-.24.54,0,.24.1.44.28.59.19.15.46.22.8.22s.61-.08.84-.22c.24-.15.41-.36.52-.65l.13.4c-.11.28-.3.51-.57.68-.27.17-.61.25-1.01.25ZM94,50.81v-.94l-.02-.15v-1.58c0-.36-.1-.64-.3-.84-.2-.2-.51-.29-.91-.29-.28,0-.54.05-.79.14-.25.09-.46.21-.64.37l-.26-.43c.22-.18.48-.33.78-.43.3-.1.62-.15.96-.15.55,0,.98.14,1.28.41.3.27.45.69.45,1.25v2.65h-.55Z"/>
      <path class="cls-2" d="M99.45,50.85c-.41,0-.77-.09-1.09-.28-.32-.18-.58-.44-.76-.77s-.28-.71-.28-1.13.09-.81.28-1.14c.18-.33.44-.58.76-.76.32-.18.69-.27,1.09-.27.37,0,.71.08,1,.25.3.17.53.41.71.74s.26.72.26,1.18-.09.85-.26,1.18c-.17.33-.41.57-.7.74-.3.17-.63.26-1.01.26ZM99.49,50.33c.3,0,.58-.07.82-.21.24-.14.43-.33.57-.59.14-.25.21-.54.21-.87s-.07-.63-.21-.88c-.14-.25-.33-.44-.57-.58-.24-.14-.51-.21-.82-.21s-.57.07-.81.21c-.24.14-.43.33-.57.58-.14.25-.21.54-.21.88s.07.62.21.87c.14.25.33.45.57.59.24.14.51.21.81.21ZM101.1,50.81v-1.29l.06-.86-.08-.86v-3.03h.58v6.04h-.55Z"/>
      <path class="cls-2" d="M106.71,50.85c-.45,0-.84-.09-1.17-.28s-.6-.45-.79-.77c-.19-.33-.29-.7-.29-1.13s.09-.8.27-1.12c.18-.33.43-.58.75-.77.32-.19.67-.28,1.07-.28s.76.09,1.07.27c.31.18.56.44.74.77.18.33.27.71.27,1.14,0,.03,0,.06,0,.09,0,.03,0,.06,0,.09h-3.72v-.43h3.41l-.23.17c0-.31-.07-.58-.2-.83s-.31-.43-.54-.57-.49-.2-.79-.2-.56.07-.79.2c-.23.14-.42.33-.55.57-.13.24-.2.52-.2.84v.09c0,.33.07.61.22.86.14.25.34.44.6.58.26.14.55.21.88.21.26,0,.5-.05.73-.14.23-.09.42-.23.58-.42l.33.37c-.19.23-.43.4-.71.52-.28.12-.6.18-.94.18Z"/>
      <path class="cls-2" d="M116.77,46.49c.35,0,.65.07.91.2.26.13.46.34.6.61.14.27.22.61.22,1.03v2.48h-.58v-2.43c0-.45-.11-.79-.32-1.02s-.52-.35-.91-.35c-.29,0-.55.06-.76.18s-.38.3-.5.53c-.12.23-.18.51-.18.83v2.25h-.58v-2.43c0-.45-.11-.79-.33-1.02-.22-.23-.52-.35-.91-.35-.29,0-.54.06-.76.18-.22.12-.38.3-.5.53-.12.23-.17.51-.17.83v2.25h-.58v-4.27h.55v1.16l-.09-.2c.13-.31.34-.55.63-.73.29-.18.63-.26,1.03-.26.42,0,.77.1,1.07.31s.48.52.57.94l-.23-.09c.12-.35.35-.63.66-.84.32-.21.7-.32,1.14-.32Z"/>
      <path class="cls-2" d="M121.65,52.43c-.2,0-.39-.03-.57-.1s-.34-.16-.47-.29l.27-.43c.11.1.23.18.35.24s.27.09.43.09c.19,0,.35-.05.49-.16.14-.11.27-.29.39-.56l.28-.63.07-.09,1.76-3.96h.57l-2.14,4.79c-.12.28-.25.5-.39.66s-.3.28-.47.35c-.17.07-.36.1-.56.1ZM122.79,50.93l-1.97-4.39h.6l1.74,3.92-.37.47Z"/>
    </g>
    <g>
      <path class="cls-1" d="M62.81,40.85c-.72,0-1.38-.11-1.99-.34-.61-.23-1.14-.55-1.58-.98-.44-.42-.79-.92-1.04-1.5-.25-.57-.38-1.21-.38-1.9s.12-1.32.38-1.9c.25-.57.6-1.07,1.04-1.5.44-.42.97-.75,1.58-.98.61-.23,1.27-.34,1.99-.34.84,0,1.59.15,2.25.44.66.29,1.21.72,1.65,1.27l-1.63,1.48c-.29-.34-.61-.61-.96-.79s-.74-.27-1.17-.27c-.37,0-.71.06-1.02.18s-.58.3-.8.52c-.22.23-.39.5-.52.82s-.19.67-.19,1.06.06.74.19,1.06c.12.32.3.59.52.82.22.23.49.4.8.52.31.12.65.18,1.02.18.43,0,.82-.09,1.17-.27s.67-.44.96-.79l1.63,1.48c-.44.54-.99.96-1.65,1.26-.66.3-1.41.45-2.25.45Z"/>
      <path class="cls-1" d="M72.97,38.69h4.74v1.98h-7.28v-9.06h7.11v1.98h-4.57v5.1ZM72.79,35.12h4.21v1.92h-4.21v-1.92Z"/>
      <path class="cls-1" d="M81.72,40.67v-9.06h2.11l5,6.03h-1v-6.03h2.51v9.06h-2.11l-5-6.03h1v6.03h-2.51Z"/>
      <path class="cls-1" d="M96.68,40.67v-7.03h-2.78v-2.03h8.12v2.03h-2.77v7.03h-2.56Z"/>
      <path class="cls-1" d="M108.1,38.69h4.74v1.98h-7.28v-9.06h7.11v1.98h-4.57v5.1ZM107.91,35.12h4.21v1.92h-4.21v-1.92Z"/>
      <path class="cls-1" d="M116.85,40.67v-9.06h4.14c.83,0,1.54.13,2.14.4.6.27,1.06.65,1.39,1.16s.49,1.1.49,1.79-.16,1.27-.49,1.77c-.33.5-.79.88-1.39,1.14-.6.26-1.31.4-2.14.4h-2.72l1.14-1.07v3.48h-2.56ZM119.41,37.46l-1.14-1.18h2.56c.53,0,.93-.12,1.2-.35.26-.23.39-.56.39-.97s-.13-.75-.39-.98c-.26-.23-.66-.35-1.2-.35h-2.56l1.14-1.18v5.01ZM122.45,40.67l-2.25-3.3h2.73l2.27,3.3h-2.74Z"/>
    </g>
    <g>
      <path class="cls-1" d="M57.82,27.06v-9.06h2.11l3.75,6.16h-1.11l3.65-6.16h2.11l.03,9.06h-2.36l-.03-5.48h.4l-2.73,4.58h-1.14l-2.81-4.58h.49v5.48h-2.37Z"/>
      <path class="cls-1" d="M75.05,27.06v-3.83l.6,1.54-4.05-6.77h2.71l2.93,4.91h-1.57l2.94-4.91h2.49l-4.04,6.77.57-1.54v3.83h-2.56Z"/>
    </g>
  </g>
</svg>